<mxfile host="app.diagrams.net" modified="2024-03-01T23:53:40.032Z" agent="Mozilla/5.0 (Windows NT 10.0; Win64; x64) AppleWebKit/537.36 (KHTML, like Gecko) Chrome/122.0.0.0 Safari/537.36" etag="bj_oP3L6tSOknBUddYCr" version="24.0.0" type="google">
  <diagram name="Page-1" id="RtT1wcywbTdFtPNxxNFD">
    <mxGraphModel grid="0" page="1" gridSize="10" guides="1" tooltips="1" connect="1" arrows="1" fold="1" pageScale="1" pageWidth="850" pageHeight="1100" math="0" shadow="0">
      <root>
        <mxCell id="0" />
        <mxCell id="1" parent="0" />
        <mxCell id="NVGE0G5s5gTIhMDeBTS2-2" style="edgeStyle=orthogonalEdgeStyle;rounded=0;orthogonalLoop=1;jettySize=auto;html=1;exitX=0.5;exitY=1;exitDx=0;exitDy=0;entryX=0.5;entryY=0;entryDx=0;entryDy=0;endArrow=none;endFill=0;" edge="1" parent="1" source="NVGE0G5s5gTIhMDeBTS2-3" target="NVGE0G5s5gTIhMDeBTS2-16">
          <mxGeometry relative="1" as="geometry" />
        </mxCell>
        <mxCell id="Omvu91C_eO1ceMYeB1Lb-13" style="edgeStyle=orthogonalEdgeStyle;rounded=0;orthogonalLoop=1;jettySize=auto;html=1;exitX=1;exitY=0.5;exitDx=0;exitDy=0;entryX=0.5;entryY=0;entryDx=0;entryDy=0;endArrow=none;endFill=0;" edge="1" parent="1" source="NVGE0G5s5gTIhMDeBTS2-3" target="Omvu91C_eO1ceMYeB1Lb-12">
          <mxGeometry relative="1" as="geometry" />
        </mxCell>
        <mxCell id="NVGE0G5s5gTIhMDeBTS2-3" value="DATA" style="rounded=0;whiteSpace=wrap;html=1;fillColor=#e1d5e7;strokeColor=#9673a6;" vertex="1" parent="1">
          <mxGeometry x="-150" y="210" width="120" height="60" as="geometry" />
        </mxCell>
        <mxCell id="Omvu91C_eO1ceMYeB1Lb-51" style="edgeStyle=orthogonalEdgeStyle;rounded=0;orthogonalLoop=1;jettySize=auto;html=1;exitX=0.5;exitY=0;exitDx=0;exitDy=0;endArrow=none;endFill=0;" edge="1" parent="1" source="NVGE0G5s5gTIhMDeBTS2-4">
          <mxGeometry relative="1" as="geometry">
            <mxPoint x="533.8000000000002" y="150" as="targetPoint" />
          </mxGeometry>
        </mxCell>
        <mxCell id="NVGE0G5s5gTIhMDeBTS2-4" value="MACHINE LEARNING" style="rounded=0;whiteSpace=wrap;html=1;fillColor=#f8cecc;strokeColor=#b85450;" vertex="1" parent="1">
          <mxGeometry x="474" y="210" width="120" height="60" as="geometry" />
        </mxCell>
        <mxCell id="Omvu91C_eO1ceMYeB1Lb-38" value="" style="edgeStyle=orthogonalEdgeStyle;rounded=0;orthogonalLoop=1;jettySize=auto;html=1;endArrow=none;endFill=0;" edge="1" parent="1" source="NVGE0G5s5gTIhMDeBTS2-6" target="Omvu91C_eO1ceMYeB1Lb-37">
          <mxGeometry relative="1" as="geometry" />
        </mxCell>
        <mxCell id="NVGE0G5s5gTIhMDeBTS2-6" value="FRONTEND" style="rounded=0;whiteSpace=wrap;html=1;fillColor=#d5e8d4;strokeColor=#82b366;" vertex="1" parent="1">
          <mxGeometry x="1180" y="220" width="120" height="60" as="geometry" />
        </mxCell>
        <mxCell id="NVGE0G5s5gTIhMDeBTS2-7" value="" style="endArrow=none;html=1;rounded=0;entryX=0.5;entryY=1;entryDx=0;entryDy=0;exitX=0.5;exitY=0;exitDx=0;exitDy=0;" edge="1" parent="1" source="NVGE0G5s5gTIhMDeBTS2-3">
          <mxGeometry width="50" height="50" relative="1" as="geometry">
            <mxPoint x="510" y="370" as="sourcePoint" />
            <mxPoint x="534" y="150" as="targetPoint" />
            <Array as="points">
              <mxPoint x="-90" y="150" />
              <mxPoint x="220" y="150" />
            </Array>
          </mxGeometry>
        </mxCell>
        <mxCell id="NVGE0G5s5gTIhMDeBTS2-8" value="" style="endArrow=none;html=1;rounded=0;exitX=0.5;exitY=0;exitDx=0;exitDy=0;" edge="1" parent="1" source="NVGE0G5s5gTIhMDeBTS2-6">
          <mxGeometry width="50" height="50" relative="1" as="geometry">
            <mxPoint x="540" y="370" as="sourcePoint" />
            <mxPoint x="530" y="150" as="targetPoint" />
            <Array as="points">
              <mxPoint x="1240" y="150" />
              <mxPoint x="917" y="150" />
            </Array>
          </mxGeometry>
        </mxCell>
        <mxCell id="NVGE0G5s5gTIhMDeBTS2-10" value="" style="edgeStyle=orthogonalEdgeStyle;rounded=0;orthogonalLoop=1;jettySize=auto;html=1;" edge="1" parent="1" source="NVGE0G5s5gTIhMDeBTS2-11" target="NVGE0G5s5gTIhMDeBTS2-14">
          <mxGeometry relative="1" as="geometry" />
        </mxCell>
        <mxCell id="NVGE0G5s5gTIhMDeBTS2-11" value="DATALAKE&lt;br&gt;S3" style="ellipse;shape=cloud;whiteSpace=wrap;html=1;fillColor=#f0a30a;fontColor=#000000;strokeColor=#BD7000;" vertex="1" parent="1">
          <mxGeometry x="-350" y="245" width="120" height="80" as="geometry" />
        </mxCell>
        <mxCell id="NVGE0G5s5gTIhMDeBTS2-12" value="&lt;div&gt;DATAWAREHOUSE&lt;/div&gt;AWS S3" style="ellipse;shape=cloud;whiteSpace=wrap;html=1;fillColor=#f0a30a;fontColor=#000000;strokeColor=#BD7000;" vertex="1" parent="1">
          <mxGeometry x="-370" y="475" width="160" height="105" as="geometry" />
        </mxCell>
        <mxCell id="NVGE0G5s5gTIhMDeBTS2-13" value="" style="edgeStyle=orthogonalEdgeStyle;rounded=0;orthogonalLoop=1;jettySize=auto;html=1;" edge="1" parent="1" source="NVGE0G5s5gTIhMDeBTS2-14" target="NVGE0G5s5gTIhMDeBTS2-12">
          <mxGeometry relative="1" as="geometry" />
        </mxCell>
        <mxCell id="NVGE0G5s5gTIhMDeBTS2-14" value="Procesamiento&amp;nbsp;&lt;br&gt;ETL" style="shape=process;whiteSpace=wrap;html=1;backgroundOutline=1;fillColor=#d0cee2;strokeColor=#56517e;" vertex="1" parent="1">
          <mxGeometry x="-350" y="375" width="120" height="60" as="geometry" />
        </mxCell>
        <mxCell id="Omvu91C_eO1ceMYeB1Lb-21" value="" style="edgeStyle=orthogonalEdgeStyle;rounded=0;orthogonalLoop=1;jettySize=auto;html=1;endArrow=none;endFill=0;" edge="1" parent="1" source="NVGE0G5s5gTIhMDeBTS2-16" target="NVGE0G5s5gTIhMDeBTS2-14">
          <mxGeometry relative="1" as="geometry" />
        </mxCell>
        <mxCell id="NVGE0G5s5gTIhMDeBTS2-16" value="CUESTIONARIO" style="rounded=1;whiteSpace=wrap;html=1;fillColor=#dae8fc;strokeColor=#6c8ebf;" vertex="1" parent="1">
          <mxGeometry x="-150" y="370" width="120" height="70" as="geometry" />
        </mxCell>
        <mxCell id="NVGE0G5s5gTIhMDeBTS2-18" value="FORMS" style="shape=step;perimeter=stepPerimeter;whiteSpace=wrap;html=1;fixedSize=1;fillColor=#fff2cc;strokeColor=#d6b656;" vertex="1" parent="1">
          <mxGeometry x="-135" y="420" width="90" height="20" as="geometry" />
        </mxCell>
        <mxCell id="NVGE0G5s5gTIhMDeBTS2-19" value="PENTAHO" style="ellipse;whiteSpace=wrap;html=1;aspect=fixed;fillColor=#b0e3e6;strokeColor=#0e8088;" vertex="1" parent="1">
          <mxGeometry x="-490" y="295" width="80" height="80" as="geometry" />
        </mxCell>
        <mxCell id="NVGE0G5s5gTIhMDeBTS2-20" value="PANDAS" style="ellipse;whiteSpace=wrap;html=1;aspect=fixed;fillColor=#b0e3e6;strokeColor=#0e8088;" vertex="1" parent="1">
          <mxGeometry x="-490" y="435" width="80" height="80" as="geometry" />
        </mxCell>
        <mxCell id="NVGE0G5s5gTIhMDeBTS2-21" value="" style="endArrow=classic;html=1;rounded=0;entryX=1;entryY=0;entryDx=0;entryDy=0;exitX=0;exitY=0.5;exitDx=0;exitDy=0;" edge="1" parent="1" source="NVGE0G5s5gTIhMDeBTS2-14" target="NVGE0G5s5gTIhMDeBTS2-20">
          <mxGeometry width="50" height="50" relative="1" as="geometry">
            <mxPoint x="-410" y="415" as="sourcePoint" />
            <mxPoint x="-360" y="365" as="targetPoint" />
          </mxGeometry>
        </mxCell>
        <mxCell id="NVGE0G5s5gTIhMDeBTS2-22" value="" style="endArrow=classic;html=1;rounded=0;entryX=1;entryY=1;entryDx=0;entryDy=0;exitX=0;exitY=0.5;exitDx=0;exitDy=0;" edge="1" parent="1" source="NVGE0G5s5gTIhMDeBTS2-14" target="NVGE0G5s5gTIhMDeBTS2-19">
          <mxGeometry width="50" height="50" relative="1" as="geometry">
            <mxPoint x="-340" y="415" as="sourcePoint" />
            <mxPoint x="-412" y="457" as="targetPoint" />
          </mxGeometry>
        </mxCell>
        <mxCell id="NVGE0G5s5gTIhMDeBTS2-23" value="" style="edgeStyle=orthogonalEdgeStyle;rounded=0;orthogonalLoop=1;jettySize=auto;html=1;endArrow=none;endFill=0;" edge="1" parent="1" source="NVGE0G5s5gTIhMDeBTS2-25" target="NVGE0G5s5gTIhMDeBTS2-4">
          <mxGeometry relative="1" as="geometry" />
        </mxCell>
        <mxCell id="NVGE0G5s5gTIhMDeBTS2-24" value="" style="edgeStyle=orthogonalEdgeStyle;rounded=0;orthogonalLoop=1;jettySize=auto;html=1;" edge="1" parent="1" source="NVGE0G5s5gTIhMDeBTS2-25" target="NVGE0G5s5gTIhMDeBTS2-33">
          <mxGeometry relative="1" as="geometry" />
        </mxCell>
        <mxCell id="NVGE0G5s5gTIhMDeBTS2-25" value="COLAB" style="ellipse;whiteSpace=wrap;html=1;fillColor=#fff2cc;strokeColor=#d6b656;" vertex="1" parent="1">
          <mxGeometry x="474" y="360" width="120" height="80" as="geometry" />
        </mxCell>
        <mxCell id="Omvu91C_eO1ceMYeB1Lb-8" style="edgeStyle=orthogonalEdgeStyle;rounded=0;orthogonalLoop=1;jettySize=auto;html=1;exitX=0.5;exitY=0;exitDx=0;exitDy=0;endArrow=none;endFill=0;" edge="1" parent="1" source="NVGE0G5s5gTIhMDeBTS2-26">
          <mxGeometry relative="1" as="geometry">
            <mxPoint x="1180" y="150" as="targetPoint" />
            <Array as="points">
              <mxPoint x="1710" y="150" />
            </Array>
          </mxGeometry>
        </mxCell>
        <mxCell id="NVGE0G5s5gTIhMDeBTS2-26" value="VISUALIZACION" style="rounded=0;whiteSpace=wrap;html=1;fillColor=#ffcc99;strokeColor=#36393d;" vertex="1" parent="1">
          <mxGeometry x="1650" y="230" width="120" height="60" as="geometry" />
        </mxCell>
        <mxCell id="Omvu91C_eO1ceMYeB1Lb-48" value="" style="edgeStyle=orthogonalEdgeStyle;rounded=0;orthogonalLoop=1;jettySize=auto;html=1;endArrow=none;endFill=0;" edge="1" parent="1" source="NVGE0G5s5gTIhMDeBTS2-27" target="Omvu91C_eO1ceMYeB1Lb-34">
          <mxGeometry relative="1" as="geometry" />
        </mxCell>
        <mxCell id="Omvu91C_eO1ceMYeB1Lb-57" style="edgeStyle=orthogonalEdgeStyle;rounded=0;orthogonalLoop=1;jettySize=auto;html=1;exitX=0.5;exitY=0;exitDx=0;exitDy=0;entryX=1;entryY=0.5;entryDx=0;entryDy=0;endArrow=none;endFill=0;" edge="1" parent="1" source="NVGE0G5s5gTIhMDeBTS2-27" target="Omvu91C_eO1ceMYeB1Lb-2">
          <mxGeometry relative="1" as="geometry" />
        </mxCell>
        <mxCell id="NVGE0G5s5gTIhMDeBTS2-27" value="MongoDB" style="shape=datastore;whiteSpace=wrap;html=1;fillColor=#fad9d5;strokeColor=#ae4132;" vertex="1" parent="1">
          <mxGeometry x="940" y="340" width="60" height="60" as="geometry" />
        </mxCell>
        <mxCell id="NVGE0G5s5gTIhMDeBTS2-28" value="" style="edgeStyle=orthogonalEdgeStyle;rounded=0;orthogonalLoop=1;jettySize=auto;html=1;endArrow=none;endFill=0;" edge="1" parent="1" source="NVGE0G5s5gTIhMDeBTS2-29" target="NVGE0G5s5gTIhMDeBTS2-18">
          <mxGeometry relative="1" as="geometry" />
        </mxCell>
        <mxCell id="NVGE0G5s5gTIhMDeBTS2-29" value="" style="shape=actor;whiteSpace=wrap;html=1;fillColor=#dae8fc;strokeColor=#6c8ebf;" vertex="1" parent="1">
          <mxGeometry x="-107.5" y="550" width="35" height="50" as="geometry" />
        </mxCell>
        <mxCell id="NVGE0G5s5gTIhMDeBTS2-30" value="DIFUSIÓN" style="text;html=1;align=center;verticalAlign=middle;resizable=0;points=[];autosize=1;strokeColor=none;fillColor=none;" vertex="1" parent="1">
          <mxGeometry x="-130" y="600" width="80" height="30" as="geometry" />
        </mxCell>
        <mxCell id="NVGE0G5s5gTIhMDeBTS2-31" value="" style="edgeStyle=orthogonalEdgeStyle;rounded=0;orthogonalLoop=1;jettySize=auto;html=1;" edge="1" parent="1" source="NVGE0G5s5gTIhMDeBTS2-32" target="NVGE0G5s5gTIhMDeBTS2-25">
          <mxGeometry relative="1" as="geometry" />
        </mxCell>
        <mxCell id="NVGE0G5s5gTIhMDeBTS2-32" value="Cuestionarios&lt;br&gt;S3" style="ellipse;shape=cloud;whiteSpace=wrap;html=1;fillColor=#fad7ac;strokeColor=#b46504;" vertex="1" parent="1">
          <mxGeometry x="320" y="360" width="120" height="80" as="geometry" />
        </mxCell>
        <mxCell id="NVGE0G5s5gTIhMDeBTS2-33" value="Modelo entrenado&lt;br&gt;S3" style="ellipse;shape=cloud;whiteSpace=wrap;html=1;fillColor=#fad7ac;strokeColor=#b46504;" vertex="1" parent="1">
          <mxGeometry x="474" y="500" width="120" height="80" as="geometry" />
        </mxCell>
        <mxCell id="NVGE0G5s5gTIhMDeBTS2-34" value="" style="shape=actor;whiteSpace=wrap;html=1;fillColor=#dae8fc;strokeColor=#6c8ebf;" vertex="1" parent="1">
          <mxGeometry x="-97.5" y="560" width="27.5" height="40" as="geometry" />
        </mxCell>
        <mxCell id="NVGE0G5s5gTIhMDeBTS2-35" value="" style="shape=actor;whiteSpace=wrap;html=1;fillColor=#dae8fc;strokeColor=#6c8ebf;" vertex="1" parent="1">
          <mxGeometry x="-120" y="560" width="27.5" height="40" as="geometry" />
        </mxCell>
        <mxCell id="NVGE0G5s5gTIhMDeBTS2-36" value="" style="shape=actor;whiteSpace=wrap;html=1;fillColor=#dae8fc;strokeColor=#6c8ebf;" vertex="1" parent="1">
          <mxGeometry x="-85" y="550" width="35" height="50" as="geometry" />
        </mxCell>
        <mxCell id="NVGE0G5s5gTIhMDeBTS2-37" value="" style="shape=actor;whiteSpace=wrap;html=1;fillColor=#dae8fc;strokeColor=#6c8ebf;" vertex="1" parent="1">
          <mxGeometry x="-135" y="550" width="35" height="50" as="geometry" />
        </mxCell>
        <mxCell id="Omvu91C_eO1ceMYeB1Lb-52" style="edgeStyle=orthogonalEdgeStyle;rounded=0;orthogonalLoop=1;jettySize=auto;html=1;exitX=0.5;exitY=1;exitDx=0;exitDy=0;endArrow=none;endFill=0;" edge="1" parent="1" source="Omvu91C_eO1ceMYeB1Lb-1">
          <mxGeometry relative="1" as="geometry">
            <mxPoint x="830" y="150" as="targetPoint" />
          </mxGeometry>
        </mxCell>
        <mxCell id="Omvu91C_eO1ceMYeB1Lb-1" value="&lt;b&gt;&lt;font style=&quot;font-size: 17px;&quot;&gt;ORIENTATECH&lt;/font&gt;&lt;/b&gt;" style="rounded=1;whiteSpace=wrap;html=1;fillColor=#ffff88;strokeColor=#36393d;" vertex="1" parent="1">
          <mxGeometry x="740" y="20" width="180" height="70" as="geometry" />
        </mxCell>
        <mxCell id="Omvu91C_eO1ceMYeB1Lb-4" style="edgeStyle=orthogonalEdgeStyle;rounded=0;orthogonalLoop=1;jettySize=auto;html=1;exitX=0.5;exitY=0;exitDx=0;exitDy=0;endArrow=none;endFill=0;" edge="1" parent="1" source="Omvu91C_eO1ceMYeB1Lb-2">
          <mxGeometry relative="1" as="geometry">
            <mxPoint x="830" y="150" as="targetPoint" />
          </mxGeometry>
        </mxCell>
        <mxCell id="Omvu91C_eO1ceMYeB1Lb-5" style="edgeStyle=orthogonalEdgeStyle;rounded=0;orthogonalLoop=1;jettySize=auto;html=1;exitX=0.5;exitY=1;exitDx=0;exitDy=0;entryX=0.5;entryY=0;entryDx=0;entryDy=0;endArrow=none;endFill=0;" edge="1" parent="1" source="Omvu91C_eO1ceMYeB1Lb-2" target="Omvu91C_eO1ceMYeB1Lb-3">
          <mxGeometry relative="1" as="geometry" />
        </mxCell>
        <mxCell id="Omvu91C_eO1ceMYeB1Lb-2" value="BACKEND" style="rounded=0;whiteSpace=wrap;html=1;fillColor=#bac8d3;strokeColor=#23445d;" vertex="1" parent="1">
          <mxGeometry x="770" y="210" width="120" height="60" as="geometry" />
        </mxCell>
        <mxCell id="Omvu91C_eO1ceMYeB1Lb-3" value="DJANGO" style="ellipse;whiteSpace=wrap;html=1;fillColor=#eeeeee;strokeColor=#36393d;" vertex="1" parent="1">
          <mxGeometry x="770" y="410" width="120" height="80" as="geometry" />
        </mxCell>
        <mxCell id="Omvu91C_eO1ceMYeB1Lb-10" value="" style="edgeStyle=orthogonalEdgeStyle;rounded=0;orthogonalLoop=1;jettySize=auto;html=1;endArrow=none;endFill=0;" edge="1" parent="1" source="Omvu91C_eO1ceMYeB1Lb-9" target="NVGE0G5s5gTIhMDeBTS2-26">
          <mxGeometry relative="1" as="geometry" />
        </mxCell>
        <mxCell id="Omvu91C_eO1ceMYeB1Lb-9" value="POWER BI" style="ellipse;whiteSpace=wrap;html=1;fillColor=#fff2cc;strokeColor=#d6b656;" vertex="1" parent="1">
          <mxGeometry x="1650" y="360" width="120" height="80" as="geometry" />
        </mxCell>
        <mxCell id="Omvu91C_eO1ceMYeB1Lb-11" value="STRAPI" style="ellipse;whiteSpace=wrap;html=1;fillColor=#eeeeee;strokeColor=#36393d;" vertex="1" parent="1">
          <mxGeometry x="1290" y="450" width="120" height="80" as="geometry" />
        </mxCell>
        <mxCell id="Omvu91C_eO1ceMYeB1Lb-15" value="" style="edgeStyle=orthogonalEdgeStyle;rounded=0;orthogonalLoop=1;jettySize=auto;html=1;endArrow=none;endFill=0;" edge="1" parent="1" source="Omvu91C_eO1ceMYeB1Lb-12" target="Omvu91C_eO1ceMYeB1Lb-14">
          <mxGeometry relative="1" as="geometry" />
        </mxCell>
        <mxCell id="Omvu91C_eO1ceMYeB1Lb-12" value="INFORMACIÓN&lt;div&gt;WEB&lt;/div&gt;" style="rounded=0;whiteSpace=wrap;html=1;fillColor=#b0e3e6;strokeColor=#0e8088;" vertex="1" parent="1">
          <mxGeometry x="20" y="290" width="120" height="60" as="geometry" />
        </mxCell>
        <mxCell id="Omvu91C_eO1ceMYeB1Lb-17" value="" style="edgeStyle=orthogonalEdgeStyle;rounded=0;orthogonalLoop=1;jettySize=auto;html=1;endArrow=classic;endFill=1;" edge="1" parent="1" source="Omvu91C_eO1ceMYeB1Lb-14" target="Omvu91C_eO1ceMYeB1Lb-16">
          <mxGeometry relative="1" as="geometry" />
        </mxCell>
        <mxCell id="Omvu91C_eO1ceMYeB1Lb-14" value="SCRAPING" style="ellipse;whiteSpace=wrap;html=1;fillColor=#d5e8d4;gradientColor=#97d077;strokeColor=#82b366;" vertex="1" parent="1">
          <mxGeometry x="15" y="380" width="130" height="60" as="geometry" />
        </mxCell>
        <mxCell id="Omvu91C_eO1ceMYeB1Lb-16" value="AWS S3" style="ellipse;shape=cloud;whiteSpace=wrap;html=1;fillColor=#f0a30a;fontColor=#000000;strokeColor=#BD7000;" vertex="1" parent="1">
          <mxGeometry x="20" y="485" width="120" height="80" as="geometry" />
        </mxCell>
        <mxCell id="Omvu91C_eO1ceMYeB1Lb-18" value="EXTRACT" style="text;html=1;align=center;verticalAlign=middle;resizable=0;points=[];autosize=1;strokeColor=none;fillColor=none;" vertex="1" parent="1">
          <mxGeometry x="-330" y="210" width="80" height="30" as="geometry" />
        </mxCell>
        <mxCell id="Omvu91C_eO1ceMYeB1Lb-19" value="TRANSFORM" style="text;html=1;align=center;verticalAlign=middle;resizable=0;points=[];autosize=1;strokeColor=none;fillColor=none;" vertex="1" parent="1">
          <mxGeometry x="-580" y="390" width="100" height="30" as="geometry" />
        </mxCell>
        <mxCell id="Omvu91C_eO1ceMYeB1Lb-20" value="LOAD" style="text;html=1;align=center;verticalAlign=middle;resizable=0;points=[];autosize=1;strokeColor=none;fillColor=none;" vertex="1" parent="1">
          <mxGeometry x="-320" y="580" width="60" height="30" as="geometry" />
        </mxCell>
        <mxCell id="Omvu91C_eO1ceMYeB1Lb-25" value="" style="edgeStyle=orthogonalEdgeStyle;rounded=0;orthogonalLoop=1;jettySize=auto;html=1;endArrow=none;endFill=0;" edge="1" parent="1" source="Omvu91C_eO1ceMYeB1Lb-24" target="NVGE0G5s5gTIhMDeBTS2-20">
          <mxGeometry relative="1" as="geometry" />
        </mxCell>
        <mxCell id="Omvu91C_eO1ceMYeB1Lb-24" value="PYTHON" style="rhombus;whiteSpace=wrap;html=1;fillColor=#ffff88;strokeColor=#36393d;" vertex="1" parent="1">
          <mxGeometry x="-620" y="450" width="100" height="50" as="geometry" />
        </mxCell>
        <mxCell id="Omvu91C_eO1ceMYeB1Lb-27" value="" style="edgeStyle=orthogonalEdgeStyle;rounded=0;orthogonalLoop=1;jettySize=auto;html=1;endArrow=none;endFill=0;" edge="1" parent="1" source="Omvu91C_eO1ceMYeB1Lb-26" target="NVGE0G5s5gTIhMDeBTS2-25">
          <mxGeometry relative="1" as="geometry" />
        </mxCell>
        <mxCell id="Omvu91C_eO1ceMYeB1Lb-26" value="PYTHON" style="rhombus;whiteSpace=wrap;html=1;fillColor=#ffff88;strokeColor=#36393d;" vertex="1" parent="1">
          <mxGeometry x="620" y="375" width="100" height="50" as="geometry" />
        </mxCell>
        <mxCell id="Omvu91C_eO1ceMYeB1Lb-29" value="" style="edgeStyle=orthogonalEdgeStyle;rounded=0;orthogonalLoop=1;jettySize=auto;html=1;endArrow=none;endFill=0;" edge="1" parent="1" source="Omvu91C_eO1ceMYeB1Lb-28" target="Omvu91C_eO1ceMYeB1Lb-3">
          <mxGeometry relative="1" as="geometry" />
        </mxCell>
        <mxCell id="Omvu91C_eO1ceMYeB1Lb-28" value="PYTHON" style="rhombus;whiteSpace=wrap;html=1;fillColor=#ffff88;strokeColor=#36393d;" vertex="1" parent="1">
          <mxGeometry x="780" y="550" width="100" height="50" as="geometry" />
        </mxCell>
        <mxCell id="Omvu91C_eO1ceMYeB1Lb-31" value="" style="edgeStyle=orthogonalEdgeStyle;rounded=0;orthogonalLoop=1;jettySize=auto;html=1;endArrow=none;endFill=0;" edge="1" parent="1" source="Omvu91C_eO1ceMYeB1Lb-30" target="Omvu91C_eO1ceMYeB1Lb-14">
          <mxGeometry relative="1" as="geometry" />
        </mxCell>
        <mxCell id="Omvu91C_eO1ceMYeB1Lb-30" value="PYTHON" style="rhombus;whiteSpace=wrap;html=1;fillColor=#ffff88;strokeColor=#36393d;" vertex="1" parent="1">
          <mxGeometry x="170" y="385" width="100" height="50" as="geometry" />
        </mxCell>
        <mxCell id="Omvu91C_eO1ceMYeB1Lb-32" value="JAVASCRIPT" style="rhombus;whiteSpace=wrap;html=1;fillColor=#dae8fc;strokeColor=#6c8ebf;" vertex="1" parent="1">
          <mxGeometry x="1500" y="345" width="100" height="50" as="geometry" />
        </mxCell>
        <mxCell id="Omvu91C_eO1ceMYeB1Lb-33" value="TYPESCRIPT" style="rhombus;whiteSpace=wrap;html=1;fillColor=#d5e8d4;strokeColor=#82b366;" vertex="1" parent="1">
          <mxGeometry x="1500" y="435" width="100" height="50" as="geometry" />
        </mxCell>
        <mxCell id="Omvu91C_eO1ceMYeB1Lb-49" value="" style="edgeStyle=orthogonalEdgeStyle;rounded=0;orthogonalLoop=1;jettySize=auto;html=1;endArrow=none;endFill=0;" edge="1" parent="1" source="Omvu91C_eO1ceMYeB1Lb-34" target="Omvu91C_eO1ceMYeB1Lb-37">
          <mxGeometry relative="1" as="geometry" />
        </mxCell>
        <mxCell id="Omvu91C_eO1ceMYeB1Lb-34" value="EXPRESS" style="ellipse;whiteSpace=wrap;html=1;fillColor=#fff2cc;strokeColor=#d6b656;" vertex="1" parent="1">
          <mxGeometry x="1030" y="330" width="120" height="80" as="geometry" />
        </mxCell>
        <mxCell id="Omvu91C_eO1ceMYeB1Lb-62" value="" style="edgeStyle=orthogonalEdgeStyle;rounded=0;orthogonalLoop=1;jettySize=auto;html=1;endArrow=none;endFill=0;" edge="1" parent="1" source="Omvu91C_eO1ceMYeB1Lb-36" target="Omvu91C_eO1ceMYeB1Lb-32">
          <mxGeometry relative="1" as="geometry" />
        </mxCell>
        <mxCell id="Omvu91C_eO1ceMYeB1Lb-36" value="NEXT JS" style="ellipse;whiteSpace=wrap;html=1;fillColor=#d0cee2;strokeColor=#56517e;" vertex="1" parent="1">
          <mxGeometry x="1360" y="330" width="120" height="80" as="geometry" />
        </mxCell>
        <mxCell id="Omvu91C_eO1ceMYeB1Lb-39" value="" style="edgeStyle=orthogonalEdgeStyle;rounded=0;orthogonalLoop=1;jettySize=auto;html=1;endArrow=none;endFill=0;" edge="1" parent="1" source="Omvu91C_eO1ceMYeB1Lb-37" target="Omvu91C_eO1ceMYeB1Lb-36">
          <mxGeometry relative="1" as="geometry" />
        </mxCell>
        <mxCell id="Omvu91C_eO1ceMYeB1Lb-37" value="&lt;div&gt;PÁGINA&lt;/div&gt;WEB" style="shape=hexagon;perimeter=hexagonPerimeter2;whiteSpace=wrap;html=1;fixedSize=1;fillColor=#f8cecc;strokeColor=#b85450;" vertex="1" parent="1">
          <mxGeometry x="1180" y="330" width="120" height="80" as="geometry" />
        </mxCell>
        <mxCell id="Omvu91C_eO1ceMYeB1Lb-46" value="" style="endArrow=classic;startArrow=classic;html=1;rounded=0;entryX=0;entryY=0.5;entryDx=0;entryDy=0;" edge="1" parent="1" target="Omvu91C_eO1ceMYeB1Lb-3">
          <mxGeometry width="50" height="50" relative="1" as="geometry">
            <mxPoint x="580" y="540" as="sourcePoint" />
            <mxPoint x="739.9999999999791" y="450" as="targetPoint" />
          </mxGeometry>
        </mxCell>
        <mxCell id="Omvu91C_eO1ceMYeB1Lb-53" value="CHART JS" style="ellipse;whiteSpace=wrap;html=1;fillColor=#cdeb8b;strokeColor=#36393d;" vertex="1" parent="1">
          <mxGeometry x="1060" y="450" width="120" height="80" as="geometry" />
        </mxCell>
        <mxCell id="Omvu91C_eO1ceMYeB1Lb-54" value="" style="endArrow=none;html=1;rounded=0;entryX=0.5;entryY=1;entryDx=0;entryDy=0;exitX=0.554;exitY=0.034;exitDx=0;exitDy=0;exitPerimeter=0;" edge="1" parent="1" source="Omvu91C_eO1ceMYeB1Lb-53" target="Omvu91C_eO1ceMYeB1Lb-37">
          <mxGeometry width="50" height="50" relative="1" as="geometry">
            <mxPoint x="1270" y="510" as="sourcePoint" />
            <mxPoint x="1320" y="460" as="targetPoint" />
          </mxGeometry>
        </mxCell>
        <mxCell id="Omvu91C_eO1ceMYeB1Lb-55" value="" style="endArrow=none;html=1;rounded=0;entryX=0.5;entryY=1;entryDx=0;entryDy=0;exitX=0.5;exitY=0;exitDx=0;exitDy=0;" edge="1" parent="1" source="Omvu91C_eO1ceMYeB1Lb-11" target="Omvu91C_eO1ceMYeB1Lb-37">
          <mxGeometry width="50" height="50" relative="1" as="geometry">
            <mxPoint x="1280" y="520" as="sourcePoint" />
            <mxPoint x="1330" y="470" as="targetPoint" />
          </mxGeometry>
        </mxCell>
        <mxCell id="Omvu91C_eO1ceMYeB1Lb-56" value="" style="endArrow=classic;startArrow=classic;html=1;rounded=0;exitX=0.5;exitY=1;exitDx=0;exitDy=0;entryX=0;entryY=0.5;entryDx=0;entryDy=0;" edge="1" parent="1" source="NVGE0G5s5gTIhMDeBTS2-27" target="Omvu91C_eO1ceMYeB1Lb-53">
          <mxGeometry width="50" height="50" relative="1" as="geometry">
            <mxPoint x="1270" y="510" as="sourcePoint" />
            <mxPoint x="1320" y="460" as="targetPoint" />
          </mxGeometry>
        </mxCell>
        <mxCell id="Omvu91C_eO1ceMYeB1Lb-58" value="CSS" style="rhombus;whiteSpace=wrap;html=1;fillColor=#fad9d5;strokeColor=#ae4132;" vertex="1" parent="1">
          <mxGeometry x="1500" y="260" width="100" height="50" as="geometry" />
        </mxCell>
        <mxCell id="Omvu91C_eO1ceMYeB1Lb-60" style="edgeStyle=orthogonalEdgeStyle;rounded=0;orthogonalLoop=1;jettySize=auto;html=1;exitX=0.5;exitY=1;exitDx=0;exitDy=0;entryX=0.5;entryY=0;entryDx=0;entryDy=0;endArrow=none;endFill=0;" edge="1" parent="1" source="Omvu91C_eO1ceMYeB1Lb-59" target="Omvu91C_eO1ceMYeB1Lb-36">
          <mxGeometry relative="1" as="geometry" />
        </mxCell>
        <mxCell id="Omvu91C_eO1ceMYeB1Lb-59" value="HTML" style="rhombus;whiteSpace=wrap;html=1;fillColor=#b0e3e6;strokeColor=#0e8088;" vertex="1" parent="1">
          <mxGeometry x="1370" y="260" width="100" height="50" as="geometry" />
        </mxCell>
        <mxCell id="Omvu91C_eO1ceMYeB1Lb-61" value="" style="endArrow=none;html=1;rounded=0;entryX=0;entryY=1;entryDx=0;entryDy=0;exitX=1;exitY=0;exitDx=0;exitDy=0;" edge="1" parent="1" source="Omvu91C_eO1ceMYeB1Lb-36" target="Omvu91C_eO1ceMYeB1Lb-58">
          <mxGeometry width="50" height="50" relative="1" as="geometry">
            <mxPoint x="1270" y="500" as="sourcePoint" />
            <mxPoint x="1320" y="450" as="targetPoint" />
          </mxGeometry>
        </mxCell>
        <mxCell id="Omvu91C_eO1ceMYeB1Lb-63" value="" style="endArrow=none;html=1;rounded=0;exitX=0;exitY=0;exitDx=0;exitDy=0;entryX=0.5;entryY=1;entryDx=0;entryDy=0;" edge="1" parent="1" source="Omvu91C_eO1ceMYeB1Lb-33" target="Omvu91C_eO1ceMYeB1Lb-36">
          <mxGeometry width="50" height="50" relative="1" as="geometry">
            <mxPoint x="1280" y="510" as="sourcePoint" />
            <mxPoint x="1330" y="460" as="targetPoint" />
          </mxGeometry>
        </mxCell>
      </root>
    </mxGraphModel>
  </diagram>
</mxfile>
